<svg xmlns="http://www.w3.org/2000/svg" width="760" height="420" viewBox="0 0 760 420">
<rect width="100%" height="100%" fill="#ffffff"/>
<text x="24" y="28" font-family="Arial, sans-serif" font-size="18" font-weight="700">Phase 20R.3 scaling law: err vs z/tau</text>
<line x1="80" y1="345" x2="640" y2="345" stroke="#111827" stroke-width="1"/>
<line x1="80" y1="55" x2="80" y2="345" stroke="#111827" stroke-width="1"/>
<polyline points="136.00,233.64 248.00,162.21 388.00,112.36 640.00,60.25" fill="none" stroke="#2563eb" stroke-width="2"/>
<circle cx="136.00" cy="233.64" r="4" fill="#2563eb"/>
<circle cx="248.00" cy="162.21" r="4" fill="#2563eb"/>
<circle cx="388.00" cy="112.36" r="4" fill="#2563eb"/>
<circle cx="640.00" cy="60.25" r="4" fill="#2563eb"/>
<polyline points="136.00,230.24 248.00,157.18 388.00,105.20 640.00,55.00" fill="none" stroke="#16a34a" stroke-width="2"/>
<circle cx="136.00" cy="230.24" r="4" fill="#16a34a"/>
<circle cx="248.00" cy="157.18" r="4" fill="#16a34a"/>
<circle cx="388.00" cy="105.20" r="4" fill="#16a34a"/>
<circle cx="640.00" cy="55.00" r="4" fill="#16a34a"/>
<polyline points="136.00,226.22 248.00,154.24 388.00,111.55 640.00,64.55" fill="none" stroke="#dc2626" stroke-width="2"/>
<circle cx="136.00" cy="226.22" r="4" fill="#dc2626"/>
<circle cx="248.00" cy="154.24" r="4" fill="#dc2626"/>
<circle cx="388.00" cy="111.55" r="4" fill="#dc2626"/>
<circle cx="640.00" cy="64.55" r="4" fill="#dc2626"/>
<text x="136.00" y="363" font-family="Arial, sans-serif" font-size="11" text-anchor="middle">0.10</text>
<text x="248.00" y="363" font-family="Arial, sans-serif" font-size="11" text-anchor="middle">0.30</text>
<text x="388.00" y="363" font-family="Arial, sans-serif" font-size="11" text-anchor="middle">0.55</text>
<text x="640.00" y="363" font-family="Arial, sans-serif" font-size="11" text-anchor="middle">1.00</text>
<text x="72" y="349.00" font-family="Arial, sans-serif" font-size="11" text-anchor="end">0.00</text>
<text x="72" y="276.50" font-family="Arial, sans-serif" font-size="11" text-anchor="end">0.12</text>
<text x="72" y="204.00" font-family="Arial, sans-serif" font-size="11" text-anchor="end">0.24</text>
<text x="72" y="131.50" font-family="Arial, sans-serif" font-size="11" text-anchor="end">0.36</text>
<text x="72" y="59.00" font-family="Arial, sans-serif" font-size="11" text-anchor="end">0.48</text>
<text x="360" y="392" font-family="Arial, sans-serif" font-size="12" text-anchor="middle">z / tau_rho</text>
<text x="20" y="200" font-family="Arial, sans-serif" font-size="12" transform="rotate(-90 20 200)">err</text>
<rect x="670" y="75" width="12" height="12" fill="#2563eb"/>
<text x="688" y="86" font-family="Arial, sans-serif" font-size="12">tau=0.2</text>
<rect x="670" y="97" width="12" height="12" fill="#16a34a"/>
<text x="688" y="108" font-family="Arial, sans-serif" font-size="12">tau=1.0</text>
<rect x="670" y="119" width="12" height="12" fill="#dc2626"/>
<text x="688" y="130" font-family="Arial, sans-serif" font-size="12">tau=5.0</text>
<text x="670" y="153" font-family="Arial, sans-serif" font-size="12">max spread 0.0156</text>
</svg>
