<svg xmlns="http://www.w3.org/2000/svg" width="760" height="430" viewBox="0 0 760 430">
<rect width="100%" height="100%" fill="white"/>
<text x="64" y="24" font-family="sans-serif" font-size="16">L.7 ref curves: local sigma, bw=6 q=13</text>
<line x1="64" y1="372" x2="736" y2="372" stroke="#222"/>
<line x1="64" y1="36" x2="64" y2="372" stroke="#222"/>
<line x1="64.0" y1="36" x2="64.0" y2="372" stroke="#ddd"/>
<text x="64.0" y="390" text-anchor="middle" font-family="sans-serif" font-size="10">0.5</text>
<line x1="186.2" y1="36" x2="186.2" y2="372" stroke="#ddd"/>
<text x="186.2" y="390" text-anchor="middle" font-family="sans-serif" font-size="10">0.6</text>
<line x1="308.4" y1="36" x2="308.4" y2="372" stroke="#ddd"/>
<text x="308.4" y="390" text-anchor="middle" font-family="sans-serif" font-size="10">0.7</text>
<line x1="430.5" y1="36" x2="430.5" y2="372" stroke="#ddd"/>
<text x="430.5" y="390" text-anchor="middle" font-family="sans-serif" font-size="10">0.8</text>
<line x1="491.6" y1="36" x2="491.6" y2="372" stroke="#ddd"/>
<text x="491.6" y="390" text-anchor="middle" font-family="sans-serif" font-size="10">0.85</text>
<line x1="552.7" y1="36" x2="552.7" y2="372" stroke="#ddd"/>
<text x="552.7" y="390" text-anchor="middle" font-family="sans-serif" font-size="10">0.9</text>
<line x1="583.3" y1="36" x2="583.3" y2="372" stroke="#ddd"/>
<text x="583.3" y="390" text-anchor="middle" font-family="sans-serif" font-size="10">0.925</text>
<line x1="613.8" y1="36" x2="613.8" y2="372" stroke="#ddd"/>
<text x="613.8" y="390" text-anchor="middle" font-family="sans-serif" font-size="10">0.95</text>
<line x1="650.5" y1="36" x2="650.5" y2="372" stroke="#ddd"/>
<text x="650.5" y="390" text-anchor="middle" font-family="sans-serif" font-size="10">0.98</text>
<line x1="674.9" y1="36" x2="674.9" y2="372" stroke="#ddd"/>
<text x="674.9" y="390" text-anchor="middle" font-family="sans-serif" font-size="10">1</text>
<line x1="699.3" y1="36" x2="699.3" y2="372" stroke="#ddd"/>
<text x="699.3" y="390" text-anchor="middle" font-family="sans-serif" font-size="10">1.02</text>
<line x1="736.0" y1="36" x2="736.0" y2="372" stroke="#ddd"/>
<text x="736.0" y="390" text-anchor="middle" font-family="sans-serif" font-size="10">1.05</text>
<line x1="64" y1="372.0" x2="736" y2="372.0" stroke="#eee"/>
<text x="56" y="372.0" text-anchor="end" dominant-baseline="middle" font-family="sans-serif" font-size="10">0.00</text>
<line x1="64" y1="304.8" x2="736" y2="304.8" stroke="#eee"/>
<text x="56" y="304.8" text-anchor="end" dominant-baseline="middle" font-family="sans-serif" font-size="10">0.00</text>
<line x1="64" y1="237.6" x2="736" y2="237.6" stroke="#eee"/>
<text x="56" y="237.6" text-anchor="end" dominant-baseline="middle" font-family="sans-serif" font-size="10">0.01</text>
<line x1="64" y1="170.4" x2="736" y2="170.4" stroke="#eee"/>
<text x="56" y="170.4" text-anchor="end" dominant-baseline="middle" font-family="sans-serif" font-size="10">0.01</text>
<line x1="64" y1="103.2" x2="736" y2="103.2" stroke="#eee"/>
<text x="56" y="103.2" text-anchor="end" dominant-baseline="middle" font-family="sans-serif" font-size="10">0.01</text>
<line x1="64" y1="36.0" x2="736" y2="36.0" stroke="#eee"/>
<text x="56" y="36.0" text-anchor="end" dominant-baseline="middle" font-family="sans-serif" font-size="10">0.02</text>
<path d="M64.00 36.00 L186.18 36.00 L308.36 36.00 L430.55 36.00 L491.64 36.00 L552.73 36.00 L583.27 36.00 L613.82 36.00 L650.47 36.00 L674.91 36.00 L699.35 36.00 L736.00 36.00" fill="none" stroke="#555555" stroke-width="2"/>
<circle cx="64.00" cy="36.00" r="3" fill="#555555"/>
<circle cx="186.18" cy="36.00" r="3" fill="#555555"/>
<circle cx="308.36" cy="36.00" r="3" fill="#555555"/>
<circle cx="430.55" cy="36.00" r="3" fill="#555555"/>
<circle cx="491.64" cy="36.00" r="3" fill="#555555"/>
<circle cx="552.73" cy="36.00" r="3" fill="#555555"/>
<circle cx="583.27" cy="36.00" r="3" fill="#555555"/>
<circle cx="613.82" cy="36.00" r="3" fill="#555555"/>
<circle cx="650.47" cy="36.00" r="3" fill="#555555"/>
<circle cx="674.91" cy="36.00" r="3" fill="#555555"/>
<circle cx="699.35" cy="36.00" r="3" fill="#555555"/>
<circle cx="736.00" cy="36.00" r="3" fill="#555555"/>
<path d="M64.00 36.00 L186.18 36.00 L308.36 36.00 L430.55 36.00 L491.64 36.00 L552.73 36.00 L583.27 36.00 L613.82 36.00 L650.47 36.00 L674.91 36.00 L699.35 36.00 L736.00 36.00" fill="none" stroke="#1f77b4" stroke-width="2"/>
<circle cx="64.00" cy="36.00" r="3" fill="#1f77b4"/>
<circle cx="186.18" cy="36.00" r="3" fill="#1f77b4"/>
<circle cx="308.36" cy="36.00" r="3" fill="#1f77b4"/>
<circle cx="430.55" cy="36.00" r="3" fill="#1f77b4"/>
<circle cx="491.64" cy="36.00" r="3" fill="#1f77b4"/>
<circle cx="552.73" cy="36.00" r="3" fill="#1f77b4"/>
<circle cx="583.27" cy="36.00" r="3" fill="#1f77b4"/>
<circle cx="613.82" cy="36.00" r="3" fill="#1f77b4"/>
<circle cx="650.47" cy="36.00" r="3" fill="#1f77b4"/>
<circle cx="674.91" cy="36.00" r="3" fill="#1f77b4"/>
<circle cx="699.35" cy="36.00" r="3" fill="#1f77b4"/>
<circle cx="736.00" cy="36.00" r="3" fill="#1f77b4"/>
<path d="M64.00 36.00 L186.18 36.00 L308.36 36.00 L430.55 36.00 L491.64 36.00 L552.73 36.00 L583.27 36.00 L613.82 36.00 L650.47 36.00 L674.91 36.00 L699.35 36.00 L736.00 36.00" fill="none" stroke="#d62728" stroke-width="2"/>
<circle cx="64.00" cy="36.00" r="3" fill="#d62728"/>
<circle cx="186.18" cy="36.00" r="3" fill="#d62728"/>
<circle cx="308.36" cy="36.00" r="3" fill="#d62728"/>
<circle cx="430.55" cy="36.00" r="3" fill="#d62728"/>
<circle cx="491.64" cy="36.00" r="3" fill="#d62728"/>
<circle cx="552.73" cy="36.00" r="3" fill="#d62728"/>
<circle cx="583.27" cy="36.00" r="3" fill="#d62728"/>
<circle cx="613.82" cy="36.00" r="3" fill="#d62728"/>
<circle cx="650.47" cy="36.00" r="3" fill="#d62728"/>
<circle cx="674.91" cy="36.00" r="3" fill="#d62728"/>
<circle cx="699.35" cy="36.00" r="3" fill="#d62728"/>
<circle cx="736.00" cy="36.00" r="3" fill="#d62728"/>
<path d="M64.00 36.00 L186.18 36.00 L308.36 36.00 L430.55 36.00 L491.64 36.00 L552.73 36.00 L583.27 36.00 L613.82 36.00 L650.47 36.00 L674.91 36.00 L699.35 36.00 L736.00 36.00" fill="none" stroke="#2ca02c" stroke-width="2"/>
<circle cx="64.00" cy="36.00" r="3" fill="#2ca02c"/>
<circle cx="186.18" cy="36.00" r="3" fill="#2ca02c"/>
<circle cx="308.36" cy="36.00" r="3" fill="#2ca02c"/>
<circle cx="430.55" cy="36.00" r="3" fill="#2ca02c"/>
<circle cx="491.64" cy="36.00" r="3" fill="#2ca02c"/>
<circle cx="552.73" cy="36.00" r="3" fill="#2ca02c"/>
<circle cx="583.27" cy="36.00" r="3" fill="#2ca02c"/>
<circle cx="613.82" cy="36.00" r="3" fill="#2ca02c"/>
<circle cx="650.47" cy="36.00" r="3" fill="#2ca02c"/>
<circle cx="674.91" cy="36.00" r="3" fill="#2ca02c"/>
<circle cx="699.35" cy="36.00" r="3" fill="#2ca02c"/>
<circle cx="736.00" cy="36.00" r="3" fill="#2ca02c"/>
<rect x="640" y="44" width="12" height="12" fill="#555555"/>
<text x="658" y="54" font-family="sans-serif" font-size="12">cbr</text>
<rect x="640" y="62" width="12" height="12" fill="#1f77b4"/>
<text x="658" y="72" font-family="sans-serif" font-size="12">poisson</text>
<rect x="640" y="80" width="12" height="12" fill="#d62728"/>
<text x="658" y="90" font-family="sans-serif" font-size="12">h2</text>
<rect x="640" y="98" width="12" height="12" fill="#2ca02c"/>
<text x="658" y="108" font-family="sans-serif" font-size="12">onoff</text>
</svg>
